<?xml version="1.0" standalone="no"?>
<!DOCTYPE svg PUBLIC "-//W3C//DTD SVG 20010904//EN"
 "http://www.w3.org/TR/2001/REC-SVG-20010904/DTD/svg10.dtd">
<svg version="1.0" xmlns="http://www.w3.org/2000/svg"
 width="1000.000000pt" height="1000.000000pt" viewBox="0 0 1000.000000 1000.000000"
 preserveAspectRatio="xMidYMid meet">
<metadata>
Created by potrace 1.11, written by Peter Selinger 2001-2013
</metadata>
<g transform="translate(0.000000,1000.000000) scale(0.100000,-0.100000)"
fill="#000000" stroke="none">
<path d="M4931 9616 c-11 -13 -39 -14 -59 -2 -4 2 -14 1 -22 -4 -8 -5 -22 -4
-33 2 -12 6 -17 6 -13 0 3 -5 -3 -12 -14 -15 -13 -3 -18 -1 -13 5 4 7 1 8 -8
2 -17 -10 -38 -15 -61 -15 -10 0 -18 -4 -18 -10 0 -5 -9 -9 -21 -9 -11 0 -27
-7 -36 -15 -8 -8 -19 -12 -25 -9 -6 4 -8 2 -5 -3 4 -6 -1 -17 -10 -24 -14 -12
-16 -12 -8 0 5 10 4 12 -3 7 -7 -4 -12 -12 -12 -17 0 -18 -29 -41 -42 -33 -8
5 -7 0 2 -11 9 -11 10 -16 3 -11 -8 4 -13 2 -13 -4 0 -6 -5 -8 -10 -5 -6 4
-10 3 -9 -2 4 -24 -2 -35 -13 -25 -10 8 -13 4 -15 -16 -1 -17 -16 -40 -43 -64
-23 -21 -39 -42 -36 -47 8 -12 -22 -23 -37 -14 -7 4 -6 -1 2 -10 12 -15 11
-17 -3 -17 -9 0 -16 -4 -16 -8 0 -4 -13 -13 -30 -19 -17 -6 -30 -19 -30 -28 0
-14 -3 -15 -14 -6 -10 8 -16 9 -21 1 -3 -6 -11 -7 -17 -4 -6 4 -8 2 -5 -3 4
-6 0 -13 -8 -17 -8 -3 -17 -1 -21 5 -4 7 -10 6 -19 -1 -17 -14 -57 -22 -50 -9
4 5 1 9 -4 9 -6 0 -11 -5 -11 -11 0 -8 -6 -7 -17 2 -11 10 -14 10 -9 2 4 -7 2
-13 -3 -13 -6 0 -11 6 -11 13 0 8 -3 9 -8 1 -10 -16 -74 -16 -66 -1 5 8 3 8
-7 0 -7 -7 -23 -13 -35 -13 -12 0 -25 6 -27 13 -4 10 -6 10 -6 0 -1 -7 -6 -13
-12 -13 -5 0 -7 6 -3 13 5 9 4 9 -6 0 -11 -10 -17 -10 -29 0 -12 9 -13 9 -7 0
9 -16 -35 -13 -46 2 -5 6 -8 5 -8 -3 0 -8 -5 -10 -12 -5 -20 12 -37 12 -44 1
-4 -6 -10 -5 -15 3 -6 10 -9 11 -9 2 0 -7 -5 -13 -11 -13 -5 0 -8 4 -5 8 2 4
-6 8 -19 8 -13 0 -21 -4 -19 -8 6 -10 -10 -11 -20 -1 -10 11 -37 12 -30 2 8
-13 -10 -11 -25 4 -11 10 -13 10 -7 0 5 -9 0 -13 -13 -13 -28 0 -37 3 -33 13
1 5 -2 6 -8 2 -6 -3 -7 -11 -4 -17 5 -7 1 -9 -9 -5 -9 3 -19 2 -22 -2 -2 -5
-14 -11 -25 -14 -11 -3 -18 -2 -15 2 2 4 -2 8 -10 8 -8 0 -11 -5 -8 -10 4 -6
-1 -8 -11 -4 -9 4 -15 3 -12 -1 2 -4 -7 -12 -20 -19 -18 -8 -23 -8 -18 0 3 7
-2 3 -10 -7 -9 -11 -16 -16 -16 -10 0 5 -5 1 -11 -9 -6 -9 -14 -15 -20 -12 -5
4 -9 0 -9 -8 0 -15 -45 -58 -53 -50 -3 3 -3 -4 0 -15 3 -12 -4 -28 -19 -42
-12 -13 -16 -20 -8 -16 8 4 7 1 -3 -7 -14 -11 -15 -16 -5 -20 8 -3 5 -6 -7 -6
-17 -1 -17 -3 -5 -11 11 -7 11 -10 2 -10 -7 0 -10 -4 -7 -10 3 -5 2 -10 -3
-10 -6 0 -9 -8 -8 -17 0 -10 -4 -17 -11 -16 -8 2 -10 -4 -6 -14 5 -12 3 -14
-7 -8 -10 6 -12 4 -7 -9 4 -10 1 -19 -8 -22 -8 -4 -15 -14 -15 -24 0 -11 -4
-22 -10 -25 -5 -3 -8 0 -7 7 2 7 -2 3 -7 -10 -7 -15 -16 -22 -27 -19 -12 3
-16 0 -12 -9 3 -9 -2 -12 -16 -9 -15 3 -18 0 -14 -12 4 -11 2 -14 -5 -9 -7 4
-12 2 -12 -6 0 -9 -3 -9 -10 2 -8 13 -10 12 -10 -4 0 -11 -3 -16 -7 -13 -3 4
-12 2 -20 -5 -11 -9 -12 -7 -8 8 5 15 3 14 -7 -3 -14 -24 -26 -27 -46 -11 -9
8 -11 7 -6 -6 7 -19 -6 -21 -25 -3 -11 10 -13 10 -7 0 5 -9 0 -13 -14 -13 -12
0 -31 -5 -42 -11 -16 -9 -19 -8 -12 3 6 11 5 11 -9 -1 -9 -7 -17 -11 -17 -7 0
3 -11 1 -25 -4 -18 -7 -25 -6 -25 3 0 7 -3 8 -8 2 -10 -14 -46 -19 -37 -6 9
16 -1 13 -19 -5 -9 -8 -16 -11 -16 -5 0 6 -5 11 -11 11 -5 0 -8 -4 -5 -9 7
-11 -13 -9 -31 2 -8 5 -13 3 -13 -4 0 -8 -5 -7 -17 2 -10 8 -14 9 -10 2 5 -8
0 -11 -13 -10 -11 1 -20 6 -20 12 0 5 -5 3 -10 -5 -9 -13 -11 -13 -20 0 -8 13
-10 12 -10 -4 0 -13 -4 -16 -12 -9 -7 6 -26 8 -43 6 -16 -2 -38 -4 -47 -4 -10
0 -18 -4 -18 -9 0 -4 -8 -7 -17 -5 -10 2 -18 4 -18 5 0 1 -8 3 -18 5 -10 2
-14 -1 -10 -8 4 -6 0 -8 -10 -4 -10 4 -17 2 -17 -5 0 -6 -6 -5 -17 3 -9 8 -14
9 -10 3 4 -7 -1 -14 -12 -17 -15 -3 -18 -1 -14 12 3 12 2 12 -7 -2 -9 -14 -15
-16 -26 -6 -12 10 -13 9 -8 -5 7 -19 -6 -21 -25 -3 -11 10 -13 10 -7 0 5 -9 0
-13 -14 -13 -11 0 -23 -7 -26 -15 -5 -12 -9 -13 -21 -4 -11 9 -17 9 -26 0 -9
-10 -8 -11 7 -5 14 5 17 4 12 -5 -5 -7 -17 -11 -27 -8 -11 3 -17 1 -14 -3 5
-9 -29 -24 -55 -25 -9 0 -14 -8 -12 -19 2 -11 -1 -15 -7 -11 -6 3 -11 1 -11
-6 0 -7 -3 -9 -7 -6 -3 4 -13 -3 -22 -16 -16 -23 -18 -26 -20 -53 0 -9 -7 -14
-15 -11 -9 4 -13 -3 -12 -21 1 -16 -4 -26 -11 -25 -7 2 -10 -4 -7 -12 3 -8 2
-20 -2 -27 -5 -7 -9 -17 -9 -23 -1 -5 -6 -9 -12 -8 -6 1 -9 -6 -6 -17 3 -11 0
-20 -6 -20 -5 0 -8 -7 -5 -15 4 -8 1 -15 -5 -15 -6 0 -8 -7 -5 -15 4 -10 2
-13 -8 -10 -9 4 -15 0 -15 -9 0 -8 4 -13 9 -10 4 3 8 0 8 -5 0 -6 -5 -11 -11
-11 -5 0 -7 -5 -3 -12 5 -7 2 -9 -8 -6 -11 5 -14 0 -12 -18 1 -13 -2 -24 -7
-24 -6 0 -8 -4 -5 -8 3 -5 -6 -15 -19 -22 -14 -7 -25 -17 -25 -21 0 -5 -7 -5
-17 -2 -9 4 -14 2 -10 -3 3 -6 -8 -19 -25 -29 -22 -13 -29 -14 -24 -4 4 8 -2
3 -13 -11 -14 -17 -21 -20 -21 -10 -1 11 -4 10 -16 -5 -13 -17 -16 -18 -24 -5
-8 13 -10 12 -10 -4 0 -13 -5 -17 -20 -13 -12 3 -17 1 -14 -5 3 -5 0 -8 -7 -7
-8 2 -24 -2 -37 -9 -12 -7 -27 -10 -33 -7 -5 4 -17 1 -25 -6 -8 -6 -17 -9 -20
-6 -4 3 -13 -1 -21 -9 -8 -8 -18 -12 -23 -9 -5 3 -11 1 -15 -5 -4 -7 -12 -7
-25 0 -16 9 -18 8 -14 -5 5 -13 1 -15 -20 -11 -18 3 -24 1 -20 -6 5 -8 1 -9
-10 -5 -10 4 -15 3 -11 -3 3 -6 -4 -10 -17 -10 -18 0 -20 -2 -8 -10 13 -8 12
-10 -2 -10 -10 0 -18 -5 -18 -11 0 -5 -4 -7 -10 -4 -6 3 -7 -1 -4 -9 3 -9 1
-16 -6 -16 -6 0 -9 -4 -6 -9 3 -5 -2 -12 -11 -15 -15 -6 -15 -8 -3 -16 13 -9
13 -10 0 -11 -8 -1 -19 -1 -23 0 -5 1 -6 -3 -2 -9 3 -6 12 -7 18 -3 7 3 4 -2
-5 -13 -11 -13 -14 -24 -8 -34 5 -8 5 -21 -1 -31 -6 -12 -5 -20 3 -25 7 -5 8
-3 3 6 -5 9 -4 11 3 6 17 -10 15 -26 -4 -26 -13 0 -11 -5 7 -21 13 -11 19 -18
13 -15 -7 3 -14 -1 -18 -9 -3 -8 0 -14 7 -12 7 1 12 -10 13 -26 1 -16 7 -33
15 -38 12 -7 12 -9 0 -9 -11 0 -10 -4 5 -16 19 -15 19 -16 0 -9 -18 5 -19 4
-4 -12 18 -21 32 -56 19 -48 -18 10 -4 -25 15 -40 19 -15 19 -15 -1 -9 -18 5
-18 4 -4 -8 21 -17 21 -29 1 -53 -16 -19 -16 -19 1 -6 20 16 22 9 5 -22 -9
-19 -9 -20 3 -10 12 9 13 4 10 -35 -2 -26 -8 -50 -15 -54 -8 -6 -7 -8 2 -8 7
0 10 -5 7 -10 -4 -6 -12 -7 -18 -3 -8 4 -8 2 1 -9 10 -13 10 -17 -2 -21 -8 -3
-20 -16 -26 -29 -11 -22 -10 -22 10 2 24 28 17 12 -20 -43 -14 -20 -30 -35
-36 -33 -6 3 -11 -3 -10 -12 0 -9 -5 -16 -11 -15 -7 2 -12 -3 -10 -10 1 -6 -3
-11 -10 -10 -7 2 -10 -4 -7 -12 4 -8 -1 -17 -10 -21 -9 -3 -13 -10 -10 -15 3
-5 0 -8 -8 -7 -7 2 -12 -4 -10 -12 2 -8 0 -12 -4 -8 -3 4 -20 -9 -35 -29 -16
-20 -29 -32 -29 -27 0 5 -6 -2 -13 -16 -8 -14 -18 -24 -24 -23 -6 1 -9 -6 -6
-17 3 -12 0 -20 -6 -20 -7 0 -9 6 -5 13 4 7 3 9 -2 4 -5 -5 -10 -13 -10 -18
-1 -5 -2 -14 -3 -20 0 -5 -5 -7 -11 -4 -6 4 -7 -1 -3 -11 4 -11 3 -15 -4 -11
-7 5 -9 0 -6 -13 3 -12 0 -20 -6 -20 -7 0 -9 -4 -6 -10 3 -5 1 -10 -4 -10 -6
0 -10 -3 -10 -7 1 -5 1 -15 0 -23 -1 -13 -2 -13 -11 0 -7 11 -8 5 -3 -20 6
-33 5 -34 -13 -20 -18 14 -18 14 -2 -5 12 -14 14 -25 8 -35 -8 -13 -10 -13
-10 -1 0 8 -3 11 -6 8 -4 -4 -1 -13 6 -22 9 -11 9 -15 1 -15 -8 0 -9 -5 -2
-17 7 -13 5 -23 -7 -37 -9 -11 -11 -16 -5 -12 9 5 12 -1 11 -18 -2 -16 -9 -26
-18 -26 -12 -1 -11 -3 3 -11 15 -9 16 -13 5 -27 -11 -13 -11 -14 1 -7 11 6 13
4 8 -8 -3 -9 -2 -19 4 -23 6 -4 3 -14 -8 -27 -10 -11 -13 -17 -7 -14 17 10 25
-18 11 -33 -9 -9 -9 -11 -1 -7 7 4 14 0 17 -8 4 -9 1 -12 -7 -9 -8 3 -17 0
-21 -6 -3 -6 -3 -10 2 -9 4 1 15 1 22 0 12 -1 12 -4 3 -13 -17 -17 -15 -28 6
-29 9 0 12 -3 5 -5 -8 -4 -9 -14 -3 -34 7 -24 6 -28 -8 -24 -10 3 -6 -2 8 -10
14 -8 19 -15 13 -16 -15 0 -18 -30 -4 -30 5 0 11 -7 14 -14 4 -11 1 -13 -11
-9 -15 6 -15 4 -4 -9 7 -9 14 -33 15 -52 1 -20 6 -36 10 -36 5 0 5 -5 2 -10
-4 -6 -11 -7 -17 -4 -5 4 -2 -6 8 -22 19 -27 19 -28 0 -21 -15 6 -17 5 -8 -6
7 -8 9 -17 5 -20 -3 -4 -2 -7 4 -7 5 0 10 -7 10 -15 0 -10 -4 -12 -12 -5 -7 6
-11 3 -11 -9 0 -13 5 -17 16 -13 13 5 13 3 1 -11 -7 -9 -10 -17 -6 -17 4 0 1
-8 -6 -17 -10 -11 -10 -14 -1 -9 6 4 12 2 12 -3 0 -6 -8 -11 -17 -11 -11 0
-14 -3 -7 -8 9 -6 11 -43 4 -62 -1 -3 -2 -9 -1 -13 1 -4 -5 -10 -13 -13 -9 -3
-12 -12 -9 -21 4 -10 2 -14 -4 -10 -7 5 -9 0 -6 -11 2 -11 -4 -27 -14 -37 -10
-10 -18 -22 -18 -26 0 -5 -9 -15 -20 -24 -11 -9 -14 -13 -6 -9 10 5 12 3 7 -5
-5 -7 -15 -10 -23 -6 -13 4 -13 3 -4 -9 9 -11 8 -15 -4 -20 -8 -3 -15 -13 -15
-22 0 -14 -3 -14 -15 -4 -13 11 -14 10 -10 -2 4 -10 -5 -22 -25 -35 -18 -11
-33 -24 -33 -29 -1 -5 -7 -8 -14 -8 -7 1 -11 -1 -10 -5 3 -10 -43 -52 -52 -46
-5 2 -8 -3 -7 -12 0 -9 -9 -22 -21 -28 -13 -7 -20 -15 -16 -18 3 -4 0 -7 -7
-7 -7 0 -11 -2 -8 -6 3 -3 -10 -21 -28 -41 -19 -20 -32 -38 -30 -41 3 -2 -5
-13 -17 -24 -12 -11 -16 -17 -9 -13 6 3 12 1 12 -4 0 -6 -4 -11 -10 -11 -5 0
-14 -10 -21 -21 -9 -17 -8 -20 3 -14 7 3 2 -3 -11 -14 -19 -18 -20 -21 -6 -21
14 0 15 -3 5 -15 -7 -8 -17 -12 -24 -8 -6 3 -6 0 2 -8 15 -16 16 -33 1 -23 -8
5 -8 1 0 -14 11 -21 5 -56 -8 -48 -4 3 -5 -11 -3 -31 4 -28 2 -34 -9 -27 -11
6 -12 5 -2 -8 7 -8 10 -18 6 -22 -9 -9 -11 -46 -2 -40 9 5 6 -37 -4 -53 -4 -6
-3 -15 3 -18 8 -5 7 -12 -2 -23 -11 -12 -11 -16 0 -20 10 -3 10 -7 1 -18 -6
-8 -7 -14 -2 -14 5 0 9 -9 9 -19 0 -11 -3 -18 -6 -16 -3 2 -6 -6 -7 -18 0 -12
1 -16 4 -9 8 21 21 13 15 -10 -4 -15 -2 -19 7 -13 10 6 11 3 2 -14 -8 -14 -8
-21 -1 -21 5 0 10 -5 10 -11 0 -5 -6 -7 -12 -4 -7 4 -5 0 6 -9 10 -8 15 -19
11 -25 -3 -6 -1 -11 5 -11 7 0 10 -7 7 -14 -4 -10 -1 -13 9 -9 8 3 14 -1 14
-11 0 -9 -6 -16 -12 -17 -7 0 2 -7 20 -15 29 -13 32 -17 21 -30 -7 -8 -8 -14
-3 -13 26 5 36 -1 25 -14 -8 -10 -7 -19 5 -33 14 -18 15 -18 4 3 -9 19 -8 23
5 23 9 0 13 -4 10 -10 -3 -5 -1 -10 5 -10 7 0 9 -8 4 -22 -6 -21 -5 -22 11 -8
11 9 16 10 11 3 -4 -7 -2 -13 3 -13 6 0 11 -7 11 -16 0 -8 4 -12 10 -9 9 5 12
-1 9 -21 -1 -13 26 -23 46 -18 19 5 19 4 2 -6 -18 -11 -18 -12 0 -30 17 -16
19 -16 38 -1 19 15 19 15 5 -3 -13 -16 -12 -21 12 -41 15 -13 24 -26 20 -31
-4 -4 0 -3 8 2 30 17 39 13 30 -12 -6 -15 -5 -26 2 -30 7 -4 8 -3 4 4 -10 16
2 15 19 -2 11 -10 11 -16 2 -25 -9 -9 -8 -11 7 -5 15 6 17 4 11 -7 -7 -12 -6
-12 7 -1 13 10 18 9 30 -10 16 -25 13 -52 -4 -42 -7 4 -8 2 -4 -5 4 -6 11 -9
16 -6 5 3 14 -4 20 -15 7 -13 17 -19 26 -16 11 4 14 1 9 -13 -4 -13 0 -20 15
-24 11 -3 20 -11 20 -19 0 -10 -3 -9 -10 2 -8 13 -10 12 -10 -2 0 -11 8 -18
19 -18 24 0 36 -16 20 -26 -8 -4 -9 -3 -5 4 4 7 2 12 -3 12 -18 0 -12 -17 11
-34 13 -9 17 -14 10 -11 -6 3 -12 2 -12 -3 0 -6 6 -12 14 -15 9 -3 13 -16 12
-31 -2 -14 1 -26 5 -26 5 0 9 -5 9 -11 0 -5 -5 -7 -10 -4 -17 10 -11 -7 8 -22
16 -14 16 -14 -2 -8 -20 6 -20 6 0 -16 10 -12 14 -20 8 -16 -7 4 -10 -3 -7
-21 2 -15 5 -33 5 -39 1 -7 6 -13 12 -14 6 0 2 -4 -9 -9 -14 -6 -15 -9 -5 -9
9 -1 16 -10 17 -21 1 -13 -2 -18 -9 -14 -7 5 -8 2 -4 -5 14 -21 17 -69 6 -76
-5 -3 -10 -12 -10 -18 0 -7 4 -6 11 3 8 11 9 8 4 -13 -3 -16 -2 -26 2 -24 4 3
8 -12 8 -34 0 -21 -4 -39 -9 -39 -5 0 -3 -7 4 -15 10 -12 10 -18 -1 -32 -8 -9
-9 -14 -4 -11 6 4 11 -2 11 -12 0 -10 -4 -17 -7 -14 -4 2 -11 -1 -15 -8 -4 -7
-4 -10 1 -6 12 11 35 -11 28 -28 -3 -7 -9 -11 -14 -8 -14 8 -10 -3 7 -20 9 -9
12 -21 7 -28 -14 -23 -12 -38 5 -38 13 0 14 -2 4 -9 -11 -7 -11 -11 2 -24 17
-16 22 -32 8 -23 -5 3 -9 -1 -9 -9 0 -8 5 -11 10 -8 6 4 8 -3 5 -15 -4 -12 -3
-20 1 -17 5 2 13 -7 20 -21 6 -14 7 -23 2 -19 -5 3 -12 1 -16 -5 -3 -5 3 -10
14 -10 12 0 21 -4 21 -10 0 -5 -8 -7 -17 -4 -17 5 -17 5 -1 -6 10 -6 18 -18
18 -26 0 -9 5 -12 12 -8 8 5 9 0 5 -16 -6 -25 11 -49 31 -42 8 2 10 -2 5 -15
-6 -16 -5 -17 12 -3 17 14 18 13 12 -2 -4 -12 3 -27 20 -45 14 -16 20 -20 13
-10 -8 11 -9 17 -2 17 6 0 14 -5 17 -10 4 -6 11 -7 17 -4 5 4 4 -4 -2 -17
l-13 -24 25 23 c18 16 25 18 25 8 0 -8 -3 -13 -7 -11 -3 2 -6 -6 -7 -18 0 -12
1 -16 4 -9 3 6 14 12 25 12 15 0 19 -5 14 -17 -5 -15 -3 -15 9 1 13 17 17 18
28 6 10 -10 9 -11 -2 -5 -9 5 -12 4 -7 -3 3 -5 0 -13 -6 -16 -7 -3 -3 -3 9 -1
12 3 24 1 27 -4 4 -6 15 -7 29 -2 20 8 77 -10 77 -25 0 -2 -9 0 -20 6 -11 6
-26 8 -32 4 -7 -5 -8 -3 -3 5 6 10 3 11 -14 2 -29 -16 -26 -19 10 -15 20 3 28
0 23 -8 -4 -7 -3 -8 5 -4 6 4 18 3 26 -4 10 -8 15 -8 21 1 5 8 3 9 -6 4 -9 -5
-11 -4 -6 4 9 14 26 5 26 -15 0 -8 4 -13 9 -9 5 3 12 1 16 -4 3 -6 13 -7 22
-4 12 5 14 3 8 -8 -8 -12 -6 -12 8 0 9 7 17 9 17 3 0 -5 8 -13 17 -17 15 -5
16 -4 6 6 -7 7 -13 20 -12 28 0 10 4 6 10 -8 8 -20 12 -21 25 -10 12 10 15 10
12 -2 -2 -8 3 -13 10 -11 6 1 12 -3 12 -9 0 -5 4 -7 10 -4 6 4 7 -1 3 -12 -6
-16 -5 -16 10 -4 20 16 23 2 5 -19 -7 -8 0 -4 16 10 27 24 28 24 17 3 -16 -31
-14 -40 5 -17 14 18 15 18 10 -6 -3 -14 -3 -19 0 -12 3 6 10 10 15 7 5 -4 7 0
6 7 -2 7 -2 10 0 6 3 -5 11 -8 19 -8 9 0 12 5 8 12 -4 6 -3 8 4 4 6 -3 9 -15
7 -26 -4 -21 21 -40 43 -33 7 3 20 -3 28 -13 9 -11 13 -14 10 -8 -3 6 1 11 8
11 8 0 12 -6 9 -14 -3 -7 0 -13 6 -13 6 0 11 5 11 12 0 6 3 8 6 5 4 -4 1 -14
-6 -22 -11 -14 -10 -14 14 -5 15 5 25 6 22 1 -3 -5 1 -11 9 -15 9 -3 12 -12 8
-22 -5 -13 -2 -16 9 -12 8 4 21 2 29 -4 11 -8 11 -9 -3 -4 -10 3 -20 1 -23 -5
-4 -5 -3 -9 2 -8 28 5 43 -3 44 -23 0 -13 3 -17 6 -10 2 6 12 12 21 11 11 0
12 -2 5 -6 -20 -7 -15 -23 4 -16 16 6 16 5 4 -10 -8 -10 -11 -20 -7 -24 3 -3
6 -1 6 5 0 7 5 12 11 12 5 0 7 -4 4 -10 -3 -5 3 -10 14 -10 14 0 23 -9 27 -25
3 -14 10 -25 15 -25 5 0 9 -9 9 -20 0 -11 5 -21 10 -21 6 -1 16 -2 23 -3 6 -1
11 -7 9 -14 -2 -11 11 -16 31 -13 10 1 9 -7 -4 -32 -7 -12 -8 -19 -4 -15 4 4
17 2 29 -4 11 -7 24 -12 27 -11 3 1 6 -5 6 -13 0 -11 -4 -11 -20 3 -19 18 -19
17 -6 -4 8 -13 21 -23 30 -23 24 0 30 -11 16 -28 -10 -13 -9 -15 5 -10 11 5
18 0 21 -13 4 -13 11 -17 24 -13 16 6 16 5 -2 -10 -13 -12 -15 -16 -5 -14 8 3
23 -4 33 -14 19 -20 9 -25 -12 -5 -11 10 -12 9 -6 -1 4 -7 18 -17 31 -22 16
-6 24 -18 24 -32 0 -19 2 -20 10 -8 8 13 10 12 11 -5 1 -11 1 -27 0 -35 -2
-13 -1 -13 8 0 9 12 11 12 11 1 0 -11 3 -11 15 -1 13 11 14 10 9 -5 -6 -14 -4
-16 7 -10 12 8 12 6 0 -9 -13 -15 -12 -18 7 -23 12 -3 22 -10 22 -15 0 -6 7
-5 15 2 21 17 19 5 -2 -16 -17 -17 -17 -17 5 -12 20 6 27 -2 23 -25 -1 -5 3
-6 9 -2 5 3 10 1 10 -6 0 -7 8 -9 21 -6 17 5 18 3 7 -11 -11 -13 -10 -15 7
-10 16 4 21 0 22 -15 2 -27 12 -34 23 -17 8 12 10 12 10 1 0 -7 6 -11 14 -8
10 4 13 1 9 -9 -4 -12 -8 -12 -22 -2 -14 10 -14 10 -3 -2 7 -8 17 -16 23 -16
5 -1 14 -2 19 -3 6 0 10 -8 10 -17 0 -8 5 -12 10 -9 5 3 10 1 10 -6 0 -6 8 -9
20 -6 11 3 23 1 26 -5 3 -5 12 -7 19 -4 10 3 12 -3 9 -21 -4 -22 -3 -24 10
-14 11 9 16 9 22 0 5 -8 3 -9 -6 -4 -9 6 -11 4 -5 -5 6 -10 11 -9 22 5 19 27
16 4 -4 -25 l-16 -25 28 25 c15 14 25 20 22 13 -4 -6 -1 -18 7 -26 8 -8 13
-17 11 -19 -3 -3 2 -5 10 -5 8 0 12 4 9 9 -3 4 0 8 5 8 6 0 11 -6 11 -13 0 -8
12 -12 35 -12 19 1 32 -2 30 -5 -5 -8 45 -35 58 -31 5 1 5 -4 1 -10 -5 -9 -2
-10 9 -6 9 3 19 2 22 -4 4 -5 11 -6 17 -3 7 4 8 2 4 -5 -6 -9 -11 -9 -22 0
-10 8 -14 8 -14 0 0 -10 7 -13 26 -10 3 0 14 -10 25 -22 10 -12 19 -18 19 -13
0 5 5 2 10 -6 6 -10 10 -11 10 -2 0 6 5 12 11 12 5 0 8 -4 5 -8 -3 -5 1 -9 9
-9 8 0 12 3 10 7 -3 5 43 6 55 0 3 -1 8 -2 11 -2 3 1 6 -6 6 -14 0 -12 -3 -11
-18 2 -10 9 -23 13 -28 9 -19 -11 -12 -25 12 -22 13 1 21 -3 20 -10 -2 -7 4
-10 12 -7 8 4 15 9 15 13 0 3 10 12 23 20 22 14 22 14 3 -8 -11 -11 -14 -21
-8 -21 7 0 14 1 15 3 2 1 12 -5 22 -13 11 -9 16 -10 11 -2 -4 6 -3 12 3 12 5
0 11 -6 14 -12 3 -10 8 -10 18 1 9 9 9 11 2 7 -7 -4 -13 -2 -13 3 0 14 17 14
25 1 3 -6 11 -10 17 -10 6 0 5 7 -3 18 -13 15 -12 16 3 4 10 -8 16 -17 15 -20
-1 -4 3 -7 8 -7 6 0 9 8 9 17 -1 10 3 15 7 12 5 -3 7 -10 4 -15 -4 -5 -1 -9 6
-9 8 0 7 -5 -2 -17 -13 -17 -13 -17 6 -3 35 27 44 37 37 45 -4 5 -1 5 6 1 9
-6 10 -12 3 -20 -8 -9 -3 -12 19 -12 16 0 27 3 24 8 -3 5 -10 6 -15 3 -5 -4
-9 -1 -9 5 0 7 8 9 19 5 11 -3 22 -1 26 5 5 8 11 8 21 -1 7 -6 11 -16 7 -22
-4 -6 -1 -7 6 -3 7 5 10 15 7 23 -3 8 -1 11 4 8 6 -3 10 -13 10 -21 0 -8 4
-14 10 -14 6 0 6 10 -1 28 l-10 27 25 -30 c16 -18 29 -26 33 -20 5 6 17 12 28
13 11 2 24 8 30 13 12 12 25 11 25 -2 0 -5 -4 -7 -10 -4 -16 10 -12 -1 6 -15
8 -8 14 -9 13 -4 -4 24 3 25 28 3 l27 -24 -24 35 c-20 30 -21 32 -4 17 12 -9
24 -14 29 -10 4 5 5 2 1 -5 -6 -9 -2 -12 10 -10 14 2 18 -2 16 -17 -2 -15 -1
-17 7 -6 5 8 8 19 7 25 -2 6 -1 8 1 4 2 -3 15 -4 29 -2 13 2 24 0 24 -6 0 -6
-4 -8 -10 -5 -5 3 -10 -2 -10 -11 0 -15 3 -15 24 5 l23 22 -2 -25 c-4 -32 3
-33 15 -3 6 14 9 16 9 6 1 -11 9 -15 29 -14 15 1 36 -4 47 -12 25 -16 67 -17
84 -1 10 11 12 10 9 -2 -2 -8 3 -14 11 -12 8 2 11 -3 8 -12 -4 -9 -1 -18 5
-22 7 -4 8 -3 4 4 -4 7 -3 12 3 12 6 0 8 8 5 18 -5 14 -4 14 4 2 6 -8 8 -18 5
-23 -3 -5 4 -6 17 -2 15 5 20 3 16 -3 -3 -6 -1 -14 5 -18 7 -4 9 -3 5 4 -3 6
-2 13 4 17 5 3 10 1 10 -5 0 -6 5 -8 10 -5 6 3 10 2 10 -4 0 -5 -3 -11 -7 -14
-5 -2 -3 -3 3 -1 6 1 17 -3 24 -9 10 -10 10 -8 2 9 -9 16 -8 21 3 21 8 0 12
-4 9 -9 -3 -4 -1 -8 5 -8 5 0 11 5 13 10 2 6 9 0 17 -12 13 -21 13 -22 -2 -10
-12 10 -17 10 -23 1 -4 -7 -3 -9 4 -5 6 3 13 2 16 -2 3 -5 15 -8 28 -6 13 1
27 3 31 3 5 1 5 6 1 13 -4 7 -3 8 4 4 7 -4 12 -14 12 -22 0 -8 -4 -13 -9 -9
-5 3 -12 1 -15 -4 -7 -11 13 -9 32 2 7 5 9 14 5 20 -4 6 6 2 21 -11 16 -12 39
-22 52 -22 13 0 24 -5 24 -11 0 -6 7 -9 15 -6 8 4 17 2 20 -4 4 -5 10 -7 15
-4 5 3 25 -4 44 -14 21 -12 38 -16 41 -11 4 6 4 11 1 11 -12 3 -26 7 -33 9 -5
1 -12 2 -16 1 -5 -1 -6 3 -2 9 4 7 11 8 18 2 7 -5 20 -8 29 -7 10 2 17 0 17
-3 -3 -20 2 -32 11 -27 6 4 7 11 4 17 -4 7 -2 8 5 4 6 -4 9 -11 6 -16 -7 -11
36 -7 54 5 10 5 12 4 7 -3 -4 -7 -2 -12 4 -12 6 0 8 -4 5 -10 -3 -5 -1 -10 4
-10 6 0 11 5 11 10 0 6 5 10 11 10 5 0 8 -4 5 -9 -3 -5 1 -14 9 -21 13 -11 15
-10 9 6 -5 17 -4 17 8 4 7 -8 20 -16 27 -18 8 -2 21 -11 28 -20 13 -15 13 -15
4 5 -8 17 -7 22 6 27 9 4 18 4 21 1 3 -3 0 -5 -6 -5 -7 0 -12 -5 -12 -11 0 -5
5 -7 10 -4 6 3 10 1 10 -6 0 -7 3 -10 6 -6 3 3 17 2 30 -3 19 -7 24 -6 24 5 0
8 5 15 11 15 6 0 9 -6 6 -13 -3 -8 -1 -20 5 -28 8 -11 9 -10 4 4 -3 9 -1 17 4
17 6 0 10 -4 10 -8 0 -4 9 -8 20 -9 13 -1 18 2 13 10 -4 7 0 6 10 -2 9 -7 23
-11 32 -8 18 7 30 -9 14 -19 -8 -5 -9 -3 -4 6 6 9 4 11 -4 6 -14 -9 -7 -19 14
-22 8 -1 13 2 10 6 -3 5 -1 11 5 15 9 6 15 -8 11 -29 -1 -5 5 -4 13 3 13 11
17 10 24 -9 7 -18 10 -20 14 -8 4 9 16 14 30 13 13 -1 29 -3 36 -4 8 0 10 -6
6 -13 -4 -8 -3 -10 2 -5 5 5 9 14 9 19 0 6 7 13 15 15 10 3 11 2 4 -4 -7 -5
-8 -16 -3 -28 6 -16 8 -17 8 -3 1 9 9 16 19 16 9 0 26 3 37 7 17 6 17 5 -3 -9
-12 -10 -27 -14 -32 -11 -6 3 -10 4 -10 1 0 -3 10 -10 21 -17 12 -6 19 -7 16
-2 -3 5 17 10 44 11 35 1 48 -2 43 -10 -4 -6 -3 -8 3 -5 6 4 16 0 23 -8 11
-13 17 -12 47 11 35 26 35 26 23 3 l-13 -23 27 17 c27 18 35 11 14 -13 -11
-12 -10 -12 5 -1 9 7 17 9 17 4 0 -5 6 -10 13 -10 8 0 14 6 14 13 0 7 -7 10
-16 7 -13 -4 -13 -3 -2 5 8 6 21 8 29 4 11 -4 13 -2 7 9 -8 12 -6 12 8 0 18
-14 23 -26 8 -16 -5 3 -13 0 -17 -7 -4 -7 -4 -10 1 -6 4 4 15 2 23 -5 11 -8
14 -8 9 0 -10 17 13 28 24 12 7 -9 7 -5 3 14 -4 17 -2 27 5 27 6 0 10 -3 10
-8 -4 -21 3 -31 16 -26 8 4 15 14 16 23 0 11 3 9 9 -6 5 -13 12 -23 15 -23 4
0 3 5 -1 12 -5 8 -2 9 10 5 9 -4 14 -3 11 2 -9 16 16 25 27 10 7 -10 8 -8 5 8
-3 13 -1 23 4 23 5 0 9 -7 9 -15 0 -8 4 -15 9 -15 4 0 7 12 4 28 -3 26 -3 26
7 4 8 -19 13 -21 30 -12 11 6 25 8 30 5 5 -3 16 5 24 17 14 19 19 21 36 10 16
-10 18 -9 13 5 -4 10 -2 14 4 10 6 -4 18 0 27 9 9 8 21 12 28 8 8 -5 9 -2 4
11 -5 15 -4 16 8 6 11 -9 16 -9 22 0 5 8 3 9 -6 4 -9 -6 -11 -4 -5 5 6 10 11
9 22 -5 7 -11 13 -13 13 -6 0 7 5 9 12 5 7 -4 8 -3 4 5 -4 6 -12 8 -18 5 -6
-4 -8 -2 -5 3 4 6 20 9 37 8 16 -1 27 1 24 6 -3 5 -9 7 -14 4 -4 -3 -14 3 -21
13 -12 15 -12 16 1 6 8 -5 22 -10 30 -9 8 0 18 -4 22 -10 5 -6 8 -3 8 6 0 9 8
23 18 30 15 13 16 12 4 -2 -10 -14 -10 -18 3 -23 9 -3 13 -2 10 3 -3 5 -1 12
5 16 6 4 8 10 5 15 -3 4 4 6 14 3 13 -3 18 -11 14 -21 -3 -11 -2 -13 4 -6 13
17 46 32 65 29 11 -2 15 2 11 11 -3 9 2 14 17 14 11 0 19 4 16 9 -4 5 2 8 11
6 10 -1 27 5 38 14 18 15 19 15 7 -1 -11 -13 -11 -21 -2 -35 9 -14 10 -15 6
-1 -7 25 5 30 28 11 20 -17 20 -17 7 0 -8 9 -11 21 -7 24 10 11 37 12 30 2 -3
-5 -11 -6 -17 -3 -7 4 -9 3 -4 -1 4 -5 18 -9 31 -10 21 0 23 2 13 14 -9 11 -5
10 20 -2 37 -20 43 -21 43 -7 0 6 -5 9 -11 8 -6 -2 -14 4 -16 12 -3 10 -2 11
4 4 4 -6 16 -10 26 -8 10 1 15 -2 11 -9 -3 -7 2 -3 12 8 14 17 16 17 11 3 -4
-10 -2 -18 3 -18 6 0 10 5 10 11 0 5 5 7 10 4 6 -4 8 -10 5 -15 -3 -4 3 -7 12
-5 10 2 26 4 36 4 9 1 17 5 17 11 0 5 -8 7 -17 3 -19 -7 -18 -5 11 17 11 8 17
10 13 3 -10 -16 20 -43 40 -36 12 5 14 3 8 -7 -6 -9 -4 -11 4 -6 7 5 10 15 7
23 -3 8 -1 11 4 8 6 -3 10 0 10 7 0 7 9 0 20 -17 11 -16 20 -26 20 -21 0 5 8
2 18 -5 15 -13 16 -12 4 3 -13 16 -11 17 17 15 17 -1 31 -4 31 -7 0 -10 39 -9
45 1 4 5 11 7 16 4 18 -12 49 -14 54 -4 4 5 12 6 18 2 7 -4 23 -9 37 -10 14
-1 32 -3 40 -5 16 -4 23 -19 13 -28 -4 -3 -3 1 2 9 5 10 4 12 -4 7 -6 -4 -9
-11 -6 -16 6 -9 31 -8 41 3 3 3 18 -2 32 -11 15 -9 23 -11 19 -4 -5 7 -3 12 3
12 6 0 8 5 4 12 -4 7 -3 8 5 4 7 -4 9 -17 6 -29 -5 -16 -4 -18 3 -8 5 7 15 10
21 7 6 -4 11 -2 11 3 0 6 -4 11 -10 11 -5 0 -10 5 -10 10 0 7 6 8 16 2 9 -5
25 -7 35 -5 11 3 19 0 19 -6 0 -5 -6 -8 -14 -5 -8 3 -17 1 -21 -5 -4 -7 0 -8
11 -4 12 4 15 3 10 -6 -6 -10 -4 -10 12 0 12 7 19 17 16 21 -3 4 3 5 12 1 13
-5 15 -3 9 7 -6 9 -4 11 5 5 10 -6 8 -12 -9 -27 -13 -10 -18 -18 -13 -18 6 0
14 4 17 10 3 5 11 10 16 10 6 0 7 -5 3 -12 -4 -6 4 -3 18 8 14 10 23 24 20 29
-3 6 1 4 10 -3 10 -8 19 -9 22 -3 3 5 15 7 26 4 11 -3 17 -10 13 -17 -4 -7 -1
-6 9 1 8 7 18 10 21 6 4 -3 7 -4 7 0 0 3 -6 12 -14 19 -12 12 -8 14 29 12 33
-2 42 1 39 10 -3 8 3 17 13 20 10 4 19 2 21 -3 2 -6 8 -11 14 -11 7 0 6 5 -1
14 -8 10 -9 16 -1 21 5 3 10 1 10 -4 0 -6 5 -11 10 -11 7 0 7 7 -1 21 -6 12
-7 19 -2 16 14 -8 53 12 53 28 0 9 5 13 10 10 6 -3 10 -1 10 6 0 7 3 9 7 6 3
-4 12 -2 20 4 10 9 10 15 2 25 -14 17 3 18 20 2 10 -11 11 -9 5 6 -6 15 -4 17
6 11 9 -5 11 -4 6 4 -11 18 22 65 38 52 8 -7 16 -6 26 1 12 8 12 9 -2 4 -10
-3 -18 -1 -18 4 0 5 9 12 20 15 11 4 18 11 15 16 -4 5 1 9 11 9 14 0 15 2 3
17 -12 14 -12 15 0 9 8 -5 16 -3 21 5 7 10 12 10 26 -2 11 -9 15 -9 10 -2 -4
8 -2 13 4 13 6 0 9 4 5 9 -3 5 -1 13 5 16 6 4 9 1 8 -6 -2 -6 3 -14 11 -17 8
-2 11 -1 8 4 -2 5 1 15 9 22 11 10 14 10 14 0 1 -7 8 -1 16 15 8 15 17 27 20
27 2 0 0 -9 -6 -19 -5 -11 -10 -26 -10 -33 1 -7 7 -2 14 11 13 24 46 38 46 20
0 -5 4 -9 10 -9 5 0 7 7 3 16 -5 14 -3 15 15 5 14 -7 23 -8 27 -1 4 6 11 8 16
5 5 -4 9 -1 9 4 0 13 22 10 32 -4 4 -6 8 -2 8 9 0 12 -5 16 -15 12 -27 -10
-16 4 13 16 49 21 67 18 64 -13 -1 -3 6 -6 13 -6 12 0 12 3 3 14 -16 20 9 35
35 21 15 -8 18 -7 12 3 -6 9 -3 11 9 6 10 -4 19 -1 22 8 6 15 25 21 23 8 -3
-20 3 -22 26 -7 13 8 28 13 34 10 5 -3 8 5 6 19 -1 14 2 28 8 32 6 3 7 2 4 -4
-4 -6 1 -19 9 -29 9 -10 13 -13 9 -6 -3 6 -1 12 4 12 6 0 11 5 11 11 0 5 -6 7
-12 3 -7 -4 -9 -3 -5 1 12 14 57 17 57 5 0 -6 7 -4 16 4 8 9 21 13 27 9 7 -4
7 -1 -1 9 -11 14 -10 16 7 11 12 -3 21 -1 21 6 0 6 5 11 11 11 5 0 7 -5 3 -12
-4 -7 -3 -8 5 -4 6 4 10 13 9 19 -2 7 0 12 3 12 15 0 38 28 32 39 -4 6 1 5 10
-3 18 -14 23 -26 8 -16 -5 3 -13 0 -17 -6 -4 -8 -3 -9 4 -5 7 4 12 2 12 -5 0
-6 9 0 21 15 11 14 24 24 29 21 4 -3 6 4 3 15 -3 12 0 20 6 20 7 0 9 -5 5 -12
-4 -7 -3 -8 4 -4 7 4 12 14 12 23 0 8 6 13 13 10 9 -3 13 2 12 16 -1 12 2 27
7 34 11 14 41 5 31 -10 -4 -6 -1 -7 6 -2 9 5 10 10 2 18 -14 14 -14 37 0 37 5
0 7 -6 3 -12 -5 -9 -2 -8 9 1 14 11 15 16 5 29 -10 12 -10 14 -1 8 8 -4 17 2
24 18 7 14 16 23 22 19 6 -3 7 -1 3 5 -4 6 -14 8 -23 5 -15 -6 -16 -5 -3 9 8
9 20 13 25 10 6 -3 3 3 -5 13 -9 11 -10 16 -2 11 8 -5 12 0 12 14 0 12 5 18
10 15 6 -3 10 -1 10 4 0 6 -4 11 -9 11 -12 0 -8 39 4 48 6 4 11 15 12 25 2 51
3 53 13 37 5 -8 10 -10 10 -4 0 5 -5 15 -12 22 -9 9 -8 12 7 12 17 0 18 2 5
10 -9 6 -11 13 -5 18 15 11 17 32 3 32 -6 0 -4 6 7 13 14 11 15 16 5 22 -9 6
-11 4 -5 -5 6 -9 4 -11 -4 -5 -9 5 -10 10 -2 18 6 6 11 18 11 26 0 14 -2 14
-11 1 -9 -12 -10 -12 -5 3 3 10 6 21 6 23 0 3 4 3 9 -1 10 -6 8 17 -5 49 -6
15 -4 18 7 12 8 -4 6 -1 -3 6 -15 13 -15 15 0 26 9 6 13 11 7 11 -23 -3 -27 2
-14 18 10 11 10 14 2 9 -7 -4 -13 -2 -13 3 0 6 5 11 11 11 6 0 3 7 -5 16 -21
20 -20 28 2 20 14 -5 14 -4 -2 9 -11 8 -15 15 -8 15 8 0 9 7 2 24 -12 32 -6
92 9 88 7 -1 10 2 6 7 -3 6 -11 8 -18 5 -8 -3 -13 4 -13 20 0 14 4 22 8 20 5
-3 5 -10 2 -16 -4 -7 -2 -8 4 -4 9 5 9 13 2 26 -13 24 -13 33 1 24 8 -4 8 0 0
15 -7 13 -8 21 -2 21 5 0 8 9 6 20 -2 11 0 18 5 15 4 -3 13 9 19 26 10 28 9
30 -6 18 -15 -13 -15 -12 -4 9 6 12 9 28 5 35 -6 9 -3 8 8 -1 13 -10 18 -10
24 -1 4 7 3 9 -3 6 -6 -4 -13 0 -16 8 -4 10 -1 12 10 8 11 -4 14 -2 9 5 -4 7
-2 12 5 12 8 0 9 3 0 13 -13 17 -5 28 15 20 10 -4 12 0 8 11 -4 10 0 18 10 22
9 3 13 11 9 17 -4 6 -1 7 7 2 9 -6 10 -1 5 16 -5 19 -4 21 5 9 8 -10 13 -11
16 -4 3 6 19 10 37 8 22 -3 28 -1 17 5 -8 6 -17 8 -21 5 -4 -2 -10 0 -14 5 -3
6 3 8 15 6 11 -2 20 2 20 8 0 8 3 8 8 2 12 -17 47 -41 38 -27 -4 6 -3 12 3 12
6 0 8 7 5 15 -4 8 -1 15 6 15 6 0 9 -3 6 -8 -2 -4 2 -16 10 -27 8 -10 14 -14
14 -7 0 6 13 18 30 27 41 21 51 19 16 -4 l-29 -19 26 1 c14 1 24 4 22 7 -2 4
5 11 16 18 10 7 19 9 18 5 -3 -21 2 -24 18 -12 9 8 14 9 11 4 -4 -6 2 -17 14
-24 11 -7 17 -8 13 -2 -3 6 1 11 9 11 9 0 16 5 16 11 0 5 -5 7 -12 3 -7 -5 -8
-3 -4 5 5 7 11 10 14 7 3 -3 13 1 23 10 11 10 19 12 23 5 9 -14 36 -2 36 15 0
8 5 14 11 14 5 0 8 -4 5 -8 -3 -5 1 -9 9 -9 12 0 12 4 -2 21 -10 12 -14 18 -9
13 5 -4 18 1 29 10 11 10 18 13 14 7 -3 -6 0 -11 8 -11 10 0 11 5 4 18 -10 20
5 37 17 18 5 -8 3 -9 -6 -4 -9 5 -11 4 -6 -4 13 -20 27 -1 15 21 -6 11 -7 18
-2 15 6 -4 20 5 31 18 13 15 17 25 9 25 -7 0 -8 3 -2 8 18 13 36 53 29 64 -5
7 -2 8 6 3 10 -6 12 -4 7 9 -4 10 1 24 12 35 18 18 18 20 3 26 -16 6 -16 7 0
19 12 9 14 16 7 23 -8 8 -7 13 2 18 8 6 10 4 4 -5 -5 -9 -4 -11 4 -6 6 4 8 12
5 18 -9 14 -11 97 -3 92 4 -2 10 3 13 12 3 8 2 13 -3 10 -5 -3 -11 1 -15 9 -3
8 -2 14 2 14 21 -3 24 3 6 17 -19 15 -19 16 0 9 20 -6 20 -6 0 16 -10 12 -13
19 -6 15 6 -4 12 -3 12 3 0 5 -6 12 -12 14 -10 4 -10 6 0 6 7 1 10 6 6 12 -4
6 -8 24 -9 39 -2 22 1 27 14 23 13 -3 12 -2 -2 7 -9 6 -15 15 -12 21 4 5 0 9
-7 9 -10 0 -10 2 1 9 8 6 10 14 5 22 -12 19 -14 40 -4 34 5 -3 12 0 16 6 4 7
3 9 -4 5 -17 -10 -25 13 -10 31 9 12 9 15 1 9 -8 -4 -13 -2 -14 6 0 7 -2 23
-5 36 -2 13 0 21 5 18 5 -3 7 3 4 14 -3 11 -9 18 -13 15 -11 -7 -7 29 5 38 6
4 5 10 -3 16 -8 4 -14 28 -15 55 0 25 -5 46 -9 46 -4 0 -8 7 -8 16 0 9 5 13
13 9 6 -4 4 0 -5 8 -10 8 -15 17 -11 20 3 4 1 7 -6 7 -8 0 -11 8 -8 19 3 11
-1 22 -8 25 -7 2 -15 14 -18 26 -5 18 -3 20 11 9 9 -7 5 0 -11 15 -15 15 -25
31 -22 36 3 4 1 10 -5 12 -5 1 -11 15 -12 30 -1 15 -5 25 -9 22 -4 -2 -18 10
-30 28 -13 17 -18 28 -11 24 7 -4 12 -2 12 3 0 6 -7 11 -16 11 -13 0 -14 3 -5
14 9 11 9 16 0 22 -8 4 -9 3 -5 -4 4 -7 2 -12 -3 -12 -6 0 -11 10 -11 22 0 12
-3 18 -7 15 -3 -4 -12 1 -19 11 -9 13 -10 20 -1 31 9 12 9 13 0 7 -8 -4 -13
-1 -13 8 0 9 -4 16 -10 16 -5 0 -7 7 -4 15 4 9 -1 18 -11 21 -9 4 -14 13 -11
20 3 8 1 14 -5 14 -6 0 -9 7 -5 15 3 8 1 15 -4 15 -6 0 -10 9 -10 20 0 11 -6
20 -12 20 -10 0 -9 3 1 9 11 7 11 9 0 13 -8 3 -14 21 -15 44 -1 21 -3 40 -4
42 -2 1 -3 5 -4 10 -1 4 -5 13 -9 20 -6 8 -2 12 10 12 14 0 15 2 4 9 -9 6 -15
27 -15 54 -1 25 3 43 8 39 5 -3 7 5 4 16 -4 12 -2 25 4 28 5 3 7 17 4 29 -3
13 -2 27 4 30 5 3 7 0 4 -8 -3 -8 -2 -17 3 -20 4 -3 9 10 9 29 1 22 -3 32 -10
28 -6 -3 -2 2 8 10 12 10 21 31 22 56 3 43 11 63 23 56 4 -3 8 1 8 9 0 8 -3
12 -7 10 -3 -2 -6 5 -6 15 0 14 4 16 12 9 9 -7 12 -5 9 8 -1 10 1 25 6 34 5
10 3 21 -4 29 -10 10 -8 12 6 7 14 -5 16 -3 8 11 -6 11 -6 24 0 35 6 9 7 22 4
27 -3 6 2 10 11 10 16 0 16 1 -2 16 -10 8 -13 13 -6 9 9 -5 11 1 8 19 -3 15
-1 24 5 21 5 -4 7 -10 4 -15 -3 -5 -2 -11 3 -14 9 -6 9 50 0 59 -12 13 4 44
20 39 13 -4 12 -2 -2 6 -14 10 -15 14 -5 20 7 5 14 16 15 24 1 9 -2 14 -7 10
-12 -7 -11 0 2 30 7 14 17 23 23 20 6 -3 3 1 -7 9 -18 15 -14 48 6 43 7 -1 9
-1 4 1 -4 3 -4 10 -1 15 5 7 2 8 -6 3 -10 -6 -12 -4 -7 9 4 10 7 20 7 22 0 3
6 2 13 -2 7 -5 7 -1 -2 10 -13 15 -13 19 0 27 12 7 12 9 -1 9 -13 0 -13 1 0
10 13 9 13 10 0 10 -9 0 -11 3 -5 8 16 11 19 45 3 37 -7 -3 -5 0 4 8 13 10 15
16 6 25 -9 9 -9 12 0 12 6 0 9 7 5 17 -5 12 -3 14 8 8 12 -7 12 -6 1 7 -11 13
-11 21 -2 39 7 12 8 19 2 15 -6 -3 -9 7 -7 25 1 17 8 35 15 39 10 6 10 8 0 12
-13 4 -22 78 -10 78 4 0 7 7 7 15 0 8 -4 12 -9 9 -12 -8 -10 10 4 24 9 9 9 12
-2 12 -7 0 -11 3 -7 6 3 3 2 17 -4 31 -7 18 -6 22 4 17 8 -5 8 -2 -2 9 -9 11
-10 17 -2 17 6 0 11 4 11 10 0 5 -3 9 -7 9 -20 -3 -26 2 -13 11 10 6 11 10 3
10 -7 0 -13 12 -13 26 0 14 -4 23 -10 19 -14 -9 -12 8 3 24 10 11 10 13 0 7
-8 -4 -13 -1 -13 8 0 8 -5 16 -10 18 -6 2 -12 13 -13 26 0 12 -5 22 -9 22 -5
0 -13 11 -18 25 -5 14 -15 25 -22 25 -10 0 -10 3 1 9 11 7 9 10 -7 15 -11 4
-25 20 -32 36 -7 17 -16 30 -21 30 -5 0 -9 5 -9 11 0 16 -26 39 -36 31 -5 -4
-2 1 6 11 11 16 11 18 -1 15 -8 -2 -13 4 -13 14 1 10 -3 15 -8 12 -5 -3 -12 3
-15 15 -3 12 -12 21 -20 21 -9 0 -13 6 -10 14 4 11 1 13 -11 9 -15 -6 -15 -5
-3 11 12 15 12 17 0 14 -8 -2 -13 3 -12 10 2 6 -2 12 -8 12 -6 0 -9 7 -6 14 4
11 1 13 -10 9 -10 -4 -14 -2 -9 5 3 6 1 14 -5 17 -5 4 -8 14 -5 22 3 8 1 11
-4 8 -9 -6 -14 8 -11 28 0 4 -4 7 -9 7 -6 0 -10 9 -10 20 0 11 -4 20 -9 20 -4
0 -7 12 -7 28 1 15 -7 37 -18 50 -11 12 -15 22 -9 22 6 0 14 -6 16 -12 4 -8 6
-9 6 -2 1 6 -6 17 -14 24 -18 15 -20 34 -2 24 6 -4 4 2 -7 14 -10 12 -16 28
-13 37 4 8 3 15 -1 15 -4 0 -7 11 -7 25 0 14 4 25 9 25 6 0 1 7 -10 16 -10 8
-12 12 -4 8 13 -7 13 -5 1 9 -9 11 -10 17 -2 17 6 0 11 5 11 11 0 5 -4 8 -8 5
-5 -3 -9 11 -10 31 -1 20 -4 38 -7 41 -2 3 3 11 13 19 11 8 12 12 3 11 -7 -2
-16 3 -19 11 -2 8 0 11 5 8 5 -3 9 3 9 13 0 10 -3 17 -6 15 -3 -2 -4 20 -2 48
1 29 3 61 3 72 0 11 5 23 12 27 9 6 9 8 -1 8 -7 0 -10 5 -7 10 4 6 11 8 16 5
5 -3 6 1 3 9 -3 9 -11 13 -16 10 -6 -4 -2 5 7 20 14 20 14 26 4 27 -8 0 -5 4
6 9 l20 9 -20 0 c-15 1 -17 3 -6 10 10 7 11 10 1 16 -10 6 -9 11 5 22 14 9 15
13 4 13 -12 0 -12 2 1 10 13 8 13 10 0 10 -11 0 -11 3 -2 12 14 14 16 32 4 24
-5 -3 -9 1 -9 9 0 8 5 11 10 8 6 -4 8 5 5 21 -4 21 -2 26 10 21 13 -5 13 -3 2
11 -12 13 -11 17 1 25 10 6 10 9 2 9 -7 0 -13 9 -13 20 0 11 6 20 13 20 8 0 7
4 -3 10 -10 6 -11 10 -2 10 6 0 12 5 12 11 0 5 -4 8 -9 5 -10 -7 -9 20 2 30 4
4 2 13 -4 20 -7 8 -6 14 2 20 8 5 9 3 4 -6 -6 -9 -4 -11 5 -5 10 6 9 11 -5 22
-11 7 -14 13 -8 13 6 0 14 7 17 16 3 8 2 13 -3 10 -5 -3 -12 1 -15 10 -5 12
-2 15 10 10 15 -6 15 -4 3 10 -18 22 -21 47 -6 56 9 6 9 8 0 8 -7 0 -13 5 -13
11 0 5 6 7 13 3 9 -6 9 -4 1 7 -16 20 -26 51 -14 44 5 -3 3 7 -5 22 -11 21
-12 30 -2 42 9 11 9 13 0 8 -6 -4 -14 -3 -18 3 -3 5 0 10 7 10 9 1 7 5 -4 14
-14 10 -15 15 -5 26 9 10 9 11 0 6 -7 -4 -13 -2 -13 3 0 20 -3 26 -19 39 -9 8
-10 11 -4 7 9 -4 11 -1 7 9 -3 9 -12 16 -19 16 -8 0 -12 10 -11 24 2 18 -1 23
-12 18 -9 -3 -13 -1 -9 4 3 6 -3 16 -13 24 -10 8 -17 17 -14 22 3 4 -2 8 -10
8 -8 0 -18 4 -21 10 -4 6 1 7 12 3 10 -3 16 -4 13 -2 -43 36 -52 42 -45 29 6
-12 5 -13 -5 -3 -11 10 -11 15 1 30 13 16 12 17 -3 5 -15 -12 -20 -12 -32 1
-8 8 -12 18 -8 22 4 5 1 5 -6 1 -8 -5 -26 4 -47 23 -22 19 -30 32 -22 35 7 3
2 3 -10 0 -14 -3 -23 -1 -23 6 0 6 -4 8 -10 5 -5 -3 -10 1 -10 10 0 9 -4 13
-10 10 -5 -3 -10 -1 -10 5 0 6 -4 9 -9 6 -4 -3 -21 5 -37 19 -15 13 -31 22
-35 19 -4 -2 -14 3 -22 11 -9 8 -20 15 -26 15 -6 0 -11 3 -11 8 0 7 -48 32
-63 32 -5 0 -18 10 -29 23 -11 12 -16 16 -12 8 5 -9 3 -12 -4 -7 -7 4 -12 15
-12 24 0 12 -3 13 -11 5 -9 -9 -17 -6 -31 10 -11 12 -17 16 -13 10 4 -9 1 -11
-9 -7 -9 3 -16 10 -16 16 0 5 -5 6 -12 2 -8 -5 -9 0 -5 17 6 23 5 23 -8 5 -15
-20 -15 -20 -15 0 0 16 -2 17 -10 4 -6 -10 -10 -11 -10 -2 0 6 -5 12 -12 12
-6 0 -20 8 -31 18 -15 12 -18 13 -12 2 8 -13 7 -13 -10 0 -10 8 -19 13 -21 10
-2 -3 -14 4 -26 15 -13 10 -24 18 -25 17 -2 -1 -9 -2 -15 -2 -9 0 -9 3 1 9 10
7 8 9 -10 8 -31 -1 -50 5 -67 20 -7 7 -20 9 -28 6 -13 -5 -15 -1 -10 18 6 21
5 22 -4 6 -10 -15 -14 -16 -27 -5 -9 7 -21 13 -27 14 -6 0 -19 2 -29 2 -12 1
-15 6 -11 15 5 8 2 8 -9 -2 -11 -9 -17 -10 -17 -2 0 6 -3 10 -7 10 -21 -3 -33
2 -27 12 4 8 0 8 -15 0 -11 -7 -21 -8 -21 -4 0 5 -12 10 -27 11 -15 1 -30 7
-34 13 -5 8 -9 8 -14 -1 -5 -8 -12 -7 -25 5 -12 11 -20 13 -25 6 -4 -8 -12 -8
-26 -1 -10 6 -19 8 -19 4 0 -3 -8 0 -17 7 -9 8 -14 9 -10 3 4 -7 -2 -10 -18
-6 -15 2 -22 9 -18 16 4 6 -1 5 -10 -3 -12 -9 -17 -10 -17 -2 0 9 -5 9 -22 0
-18 -10 -20 -9 -14 7 5 17 5 18 -7 2 -12 -15 -14 -15 -25 0 -7 9 -10 11 -7 5
4 -9 -5 -13 -30 -13 -26 0 -34 3 -29 13 6 8 3 8 -9 -1 -9 -8 -21 -11 -27 -7
-5 3 -10 2 -10 -4 0 -6 -7 -8 -15 -5 -8 4 -12 11 -9 18 3 6 0 4 -8 -4 -18 -21
-70 -21 -63 0 4 11 2 11 -8 -2 -11 -14 -16 -15 -27 -5 -10 10 -11 9 -5 -2 6
-11 3 -13 -13 -9 -13 4 -22 1 -22 -5 0 -7 -4 -6 -9 2 -8 13 -12 13 -27 0 -16
-12 -17 -12 -9 1 8 13 7 13 -8 1 -13 -10 -17 -10 -17 -1 0 10 -3 10 -15 0 -12
-10 -15 -10 -15 1 0 9 -3 10 -8 3 -12 -17 -39 -23 -51 -11 -7 7 -11 7 -11 1 0
-12 -29 -12 -48 -1 -8 6 -10 3 -5 -10 6 -16 5 -16 -10 -4 -14 11 -17 11 -17 0
0 -11 -2 -11 -10 1 -8 12 -10 12 -10 1 0 -11 -3 -11 -17 0 -11 10 -14 10 -9 2
4 -7 3 -13 -1 -13 -5 0 -15 6 -22 13 -11 10 -12 9 -6 -2 6 -11 3 -13 -13 -9
-12 4 -20 3 -17 -2 2 -4 -6 -7 -20 -7 -14 0 -22 3 -20 8 3 4 0 11 -7 15 -7 4
-10 4 -6 -1 5 -5 -2 -15 -13 -23 -17 -11 -23 -12 -29 -2 -5 9 -9 9 -14 1 -4
-6 -13 -11 -19 -11 -7 0 -6 4 3 11 12 9 11 10 -5 4 -11 -4 -26 -10 -34 -13
-10 -4 -12 -1 -6 9 7 12 6 12 -7 1 -18 -14 -79 -19 -98 -7 -9 5 -11 4 -6 -3 4
-7 2 -12 -3 -12 -6 0 -11 4 -11 10 0 6 -9 6 -26 0 -14 -6 -23 -6 -20 -2 6 10
-59 6 -76 -4 -7 -4 -8 -3 -4 4 4 7 2 12 -3 12 -6 0 -11 -5 -11 -11 0 -8 -4 -8
-14 0 -11 9 -15 9 -19 -1 -3 -8 -6 -5 -6 6 -1 20 -1 20 -17 0 -8 -10 -13 -14
-10 -8 3 7 -3 14 -14 17 -11 3 -18 1 -14 -4 3 -5 -2 -9 -10 -9 -9 0 -16 5 -16
10 0 7 -6 7 -19 0 -13 -6 -22 -7 -26 0 -3 5 -16 10 -28 10 -45 0 -58 4 -53 16
3 8 0 11 -9 7 -8 -3 -12 -10 -9 -15 4 -6 -6 -2 -22 8 -21 14 -26 15 -19 4 7
-12 3 -11 -17 2 -15 10 -34 15 -43 12 -8 -4 -21 -1 -29 5 -7 6 -16 7 -20 3 -4
-4 -14 2 -22 12 -8 11 -14 14 -14 8 0 -7 -5 -12 -11 -12 -5 0 -8 4 -5 9 4 5
-3 7 -14 4 -12 -3 -20 0 -20 7 0 7 -8 9 -21 5 -16 -5 -19 -4 -14 5 5 9 2 10
-13 6 -12 -4 -23 -2 -28 5 -5 8 -3 9 6 4 9 -5 11 -4 6 4 -6 9 -11 9 -22 0 -12
-10 -18 -6 -16 12 1 3 -5 6 -13 6 -8 0 -12 -4 -9 -9 11 -17 -9 -7 -28 15 -13
14 -21 18 -24 10 -3 -7 -12 -9 -20 -6 -7 3 -12 8 -10 12 2 3 -7 7 -21 8 -14 0
-29 7 -34 15 -5 7 -9 10 -9 6 0 -4 -13 6 -30 24 -16 17 -30 26 -30 20 0 -6 8
-16 18 -21 9 -6 13 -11 9 -11 -4 0 -19 7 -33 16 -20 14 -22 19 -12 33 10 13
10 14 -2 4 -18 -16 -44 -17 -34 -1 5 8 2 9 -9 5 -12 -4 -17 -1 -18 11 0 10 -3
12 -6 5 -2 -7 -9 -13 -15 -13 -6 0 -8 6 -5 14 4 10 0 12 -15 8 -14 -3 -19 -1
-14 6 5 8 2 10 -9 6 -9 -4 -22 1 -31 12 -9 11 -13 13 -9 7 7 -15 -7 -17 -21
-3 -5 5 -21 11 -34 14 -14 2 -24 8 -23 13 1 5 -10 9 -25 8 -16 0 -26 5 -24 13
1 6 -2 12 -8 12 -5 0 -10 -5 -10 -11 0 -8 -6 -7 -17 2 -14 12 -16 12 -8 0 9
-16 1 -12 -50 23 -25 17 -28 17 -16 2 14 -17 13 -17 -18 -13 -17 3 -39 11 -47
18 -8 6 -17 9 -21 5 -3 -3 0 -6 7 -6 7 0 11 -3 8 -6 -4 -3 -20 2 -37 10 -29
15 -30 15 -24 -1 6 -16 4 -16 -9 -5 -9 7 -25 12 -35 10 -10 -2 -17 2 -15 10 3
16 -3 15 -17 -2z m-616 -406 c-3 -5 -12 -10 -18 -10 -7 0 -6 4 3 10 19 12 23
12 15 0z m-2345 -814 c0 -2 -8 -10 -17 -17 -16 -13 -17 -12 -4 4 13 16 21 21
21 13z m-1310 -4276 c0 -5 -7 -7 -15 -4 -8 4 -15 8 -15 10 0 2 7 4 15 4 8 0
15 -4 15 -10z m44 -41 c-2 -4 4 -10 13 -12 15 -4 15 -5 2 -6 -9 0 -22 5 -28
12 -8 10 -7 14 4 14 8 0 12 -4 9 -8z m177 -187 c-7 -2 -18 1 -23 6 -8 8 -4 9
13 5 13 -4 18 -8 10 -11z m126 -337 c0 -8 -4 -12 -9 -9 -5 3 -6 10 -3 15 9 13
12 11 12 -6z m8380 -437 c-3 -8 -6 -5 -6 6 -1 11 2 17 5 13 3 -3 4 -12 1 -19z
m-230 -33 c-15 -16 -19 -13 -11 9 3 9 10 13 15 10 5 -3 3 -11 -4 -19z m140 -7
c-3 -8 -6 -5 -6 6 -1 11 2 17 5 13 3 -3 4 -12 1 -19z m-8157 -300 c0 -4 -4 -8
-9 -8 -6 0 -12 4 -15 8 -3 5 1 9 9 9 8 0 15 -4 15 -9z m230 -158 c0 -5 -2 -10
-4 -10 -3 0 -8 5 -11 10 -3 6 -1 10 4 10 6 0 11 -4 11 -10z m160 -62 c0 -6 -6
-5 -15 2 -8 7 -15 14 -15 16 0 2 7 1 15 -2 8 -4 15 -11 15 -16z m289 -121 c0
-9 -2 -8 -6 1 -2 6 -10 9 -15 6 -7 -4 -8 -2 -4 5 9 13 26 5 25 -12z m336 -277
c3 -5 1 -10 -4 -10 -6 0 -11 5 -11 10 0 6 2 10 4 10 3 0 8 -4 11 -10z m6482
-417 c-11 -11 -17 -13 -17 -5 0 7 5 12 11 12 6 0 8 7 4 18 -5 14 -4 15 6 4 11
-10 10 -15 -4 -29z m-289 -137 c-2 -1 -12 -8 -23 -16 -18 -14 -19 -13 -8 1 7
9 10 19 6 23 -4 4 1 4 10 0 10 -3 17 -7 15 -8z m-5640 -31 c-3 -3 -9 2 -12 12
-6 14 -5 15 5 6 7 -7 10 -15 7 -18z m5382 -33 c0 -4 -9 -13 -19 -19 -16 -10
-22 -9 -33 5 -12 15 -11 16 4 3 15 -11 19 -11 24 3 6 16 24 22 24 8z m-5192
-75 c14 4 14 3 2 -5 -16 -12 -30 -7 -29 11 0 9 2 9 5 0 3 -7 13 -9 22 -6z
m217 -118 c-6 -8 9 -13 28 -10 5 1 6 -3 2 -9 -9 -14 -38 3 -41 24 -1 9 2 14 7
10 5 -3 7 -10 4 -15z m342 -81 c-3 -8 -6 -5 -6 6 -1 11 2 17 5 13 3 -3 4 -12
1 -19z m207 11 c9 14 26 14 26 0 0 -5 -4 -8 -9 -4 -5 3 -12 1 -16 -5 -8 -13
-25 -3 -25 13 0 8 3 8 9 -2 6 -9 11 -10 15 -2z m4016 -5 c0 -8 -19 -13 -24 -6
-3 5 1 9 9 9 8 0 15 -2 15 -3z m-3619 -41 c13 -17 13 -17 -6 -3 -11 8 -22 16
-24 17 -2 2 0 3 6 3 6 0 17 -8 24 -17z m289 -73 c6 -11 8 -20 6 -20 -3 0 -10
9 -16 20 -6 11 -8 20 -6 20 3 0 10 -9 16 -20z m2268 -5 c-3 -3 -9 2 -12 12 -6
14 -5 15 5 6 7 -7 10 -15 7 -18z m85 10 c-3 -9 -8 -14 -10 -11 -3 3 -2 9 2 15
9 16 15 13 8 -4z m87 -5 c0 -5 -5 -10 -11 -10 -5 0 -7 5 -4 10 3 6 8 10 11 10
2 0 4 -4 4 -10z m94 -11 c-3 -5 -10 -7 -15 -3 -5 3 -7 10 -3 15 3 5 10 7 15 3
5 -3 7 -10 3 -15z m613 6 c0 -8 -4 -12 -9 -9 -5 3 -6 10 -3 15 9 13 12 11 12
-6z m-393 -45 c-6 -6 -10 -3 -10 10 0 13 4 16 10 10 7 -7 7 -13 0 -20z m-2586
-5 c-3 -3 -9 2 -12 12 -6 14 -5 15 5 6 7 -7 10 -15 7 -18z m2629 8 c0 -7 -4
-13 -8 -13 -4 0 -9 6 -12 13 -3 8 0 14 7 14 7 0 13 -6 13 -14z m-2577 -8 c0
-7 -30 -13 -34 -7 -3 4 4 9 15 9 10 1 19 0 19 -2z m274 -76 c-3 -5 -10 -7 -15
-3 -5 3 -7 10 -3 15 3 5 10 7 15 3 5 -3 7 -10 3 -15z m87 -27 c-7 -2 -18 1
-23 6 -8 8 -4 9 13 5 13 -4 18 -8 10 -11z m999 -2 c0 -5 -5 -10 -11 -10 -5 0
-7 5 -4 10 3 6 8 10 11 10 2 0 4 -4 4 -10z m40 6 c0 -3 -4 -8 -10 -11 -5 -3
-10 -1 -10 4 0 6 5 11 10 11 6 0 10 -2 10 -4z m-80 -37 c0 -15 -18 -19 -23 -6
-3 8 1 14 9 14 8 0 14 -4 14 -8z m-721 -11 c7 11 9 11 14 -1 4 -10 -1 -14 -16
-13 -11 1 -22 8 -24 16 -4 13 -3 13 6 0 9 -12 13 -13 20 -2z m58 -3 c0 -8 -4
-12 -9 -9 -5 3 -6 10 -3 15 9 13 12 11 12 -6z m143 -29 c0 -3 -4 -8 -10 -11
-5 -3 -10 -1 -10 4 0 6 5 11 10 11 6 0 10 -2 10 -4z m69 -12 c-12 -15 -11 -16
11 -9 22 7 23 6 11 -9 -10 -12 -17 -14 -27 -5 -11 9 -11 15 -3 25 6 8 14 14
16 14 3 0 -1 -7 -8 -16z"/>
<path d="M4446 9373 c-6 -14 -5 -15 5 -6 7 7 10 15 7 18 -3 3 -9 -2 -12 -12z"/>
<path d="M8150 9101 c0 -6 4 -13 10 -16 6 -3 7 1 4 9 -7 18 -14 21 -14 7z"/>
<path d="M8555 8880 c3 -5 8 -10 11 -10 2 0 4 5 4 10 0 6 -5 10 -11 10 -5 0
-7 -4 -4 -10z"/>
<path d="M8766 8738 c3 -5 10 -6 15 -3 13 9 11 12 -6 12 -8 0 -12 -4 -9 -9z"/>
<path d="M875 5900 c3 -5 8 -10 11 -10 2 0 4 5 4 10 0 6 -5 10 -11 10 -5 0 -7
-4 -4 -10z"/>
<path d="M9369 5423 c-13 -16 -12 -17 4 -4 9 7 17 15 17 17 0 8 -8 3 -21 -13z"/>
<path d="M560 5220 c-9 -6 -10 -10 -3 -10 6 0 15 5 18 10 8 12 4 12 -15 0z"/>
<path d="M458 4313 c7 -3 16 -2 19 1 4 3 -2 6 -13 5 -11 0 -14 -3 -6 -6z"/>
<path d="M810 3948 c0 -9 7 -19 16 -22 15 -6 15 -4 3 11 -7 10 -15 20 -16 22
-2 2 -3 -3 -3 -11z"/>
<path d="M955 3701 c-3 -5 -2 -12 3 -15 5 -3 9 1 9 9 0 17 -3 19 -12 6z"/>
<path d="M9515 3220 c-3 -5 -1 -10 4 -10 6 0 11 5 11 10 0 6 -2 10 -4 10 -3 0
-8 -4 -11 -10z"/>
<path d="M9350 3095 c-7 -9 -10 -18 -6 -22 3 -3 6 -1 6 5 0 6 6 10 13 8 6 -1
9 -1 4 1 -4 3 -5 9 -1 14 9 15 -2 10 -16 -6z"/>
<path d="M9230 3071 c0 -5 5 -13 10 -16 6 -3 10 -2 10 4 0 5 -4 13 -10 16 -5
3 -10 2 -10 -4z"/>
<path d="M1611 2514 c0 -11 3 -14 6 -6 3 7 2 16 -1 19 -3 4 -6 -2 -5 -13z"/>
<path d="M1630 2499 c0 -5 5 -7 10 -4 6 3 10 8 10 11 0 2 -4 4 -10 4 -5 0 -10
-5 -10 -11z"/>
<path d="M1755 2450 c-3 -5 -1 -10 4 -10 6 0 11 5 11 10 0 6 -2 10 -4 10 -3 0
-8 -4 -11 -10z"/>
<path d="M1910 2362 c0 -4 10 -9 22 -9 18 -2 20 0 8 7 -18 12 -30 13 -30 2z"/>
<path d="M2086 2207 c3 -10 9 -15 12 -12 3 3 0 11 -7 18 -10 9 -11 8 -5 -6z"/>
<path d="M8840 2081 c0 -6 4 -13 10 -16 6 -3 7 1 4 9 -7 18 -14 21 -14 7z"/>
<path d="M8725 1841 c-3 -5 -2 -12 3 -15 5 -3 9 1 9 9 0 17 -3 19 -12 6z"/>
<path d="M8567 1699 c7 -7 15 -10 18 -7 3 3 -2 9 -12 12 -14 6 -15 5 -6 -5z"/>
<path d="M8433 1625 c0 -8 4 -15 9 -15 4 0 8 4 8 9 0 6 -4 12 -8 15 -5 3 -9
-1 -9 -9z"/>
<path d="M8146 1551 c-3 -5 1 -11 9 -15 15 -6 29 7 18 18 -9 9 -21 8 -27 -3z"/>
<path d="M2735 1530 c-4 -6 -1 -9 7 -8 7 2 12 -3 11 -9 -2 -7 2 -13 7 -13 14
0 12 16 -4 29 -10 8 -16 9 -21 1z"/>
<path d="M7835 1429 c-4 -6 -5 -12 -2 -15 2 -3 7 2 10 11 7 17 1 20 -8 4z"/>
<path d="M2960 1400 c19 -11 40 -19 45 -19 6 0 -6 8 -25 19 -19 11 -39 19 -45
19 -5 0 6 -8 25 -19z"/>
<path d="M7731 1342 c-7 -14 -6 -19 3 -19 6 0 13 9 13 19 1 10 0 18 -2 18 -2
0 -9 -8 -14 -18z"/>
<path d="M3556 1271 c-4 -7 -5 -15 -2 -18 9 -9 19 4 14 18 -4 11 -6 11 -12 0z"/>
<path d="M3365 1240 c-3 -6 1 -7 9 -4 18 7 21 14 7 14 -6 0 -13 -4 -16 -10z"/>
<path d="M4110 1200 c0 -5 5 -10 11 -10 5 0 7 5 4 10 -3 6 -8 10 -11 10 -2 0
-4 -4 -4 -10z"/>
<path d="M6743 1145 c0 -8 4 -12 9 -9 5 3 6 10 3 15 -9 13 -12 11 -12 -6z"/>
<path d="M6335 1129 c-10 -15 3 -25 16 -12 7 7 7 13 1 17 -6 3 -14 1 -17 -5z"/>
<path d="M6903 1125 c0 -8 4 -12 9 -9 5 3 6 10 3 15 -9 13 -12 11 -12 -6z"/>
<path d="M6965 1130 c-7 -12 -8 -11 28 -14 15 -2 25 0 21 3 -3 3 -9 6 -12 6
-4 0 -12 4 -19 8 -6 4 -14 3 -18 -3z"/>
<path d="M6935 1120 c-3 -5 -1 -10 4 -10 6 0 11 5 11 10 0 6 -2 10 -4 10 -3 0
-8 -4 -11 -10z"/>
<path d="M7030 1121 c0 -5 5 -13 10 -16 6 -3 10 -2 10 4 0 5 -4 13 -10 16 -5
3 -10 2 -10 -4z"/>
<path d="M7390 1100 c0 -5 5 -10 11 -10 5 0 7 5 4 10 -3 6 -8 10 -11 10 -2 0
-4 -4 -4 -10z"/>
<path d="M7355 1089 c-4 -5 -4 -13 -1 -16 3 -4 6 0 6 8 0 11 2 11 10 -1 6 -9
10 -10 10 -3 0 17 -17 25 -25 12z"/>
<path d="M5026 962 c-3 -5 1 -9 9 -9 8 0 12 4 9 9 -3 4 -7 8 -9 8 -2 0 -6 -4
-9 -8z"/>
</g>
</svg>
