<?xml version="1.0" encoding="iso-8859-1"?>
<!-- Generator: Adobe Illustrator 19.0.0, SVG Export Plug-In . SVG Version: 6.00 Build 0)  -->
<svg version="1.1" id="Layer_1" xmlns="http://www.w3.org/2000/svg" xmlns:xlink="http://www.w3.org/1999/xlink" x="0px" y="0px"
	 viewBox="0 0 511.999 511.999" style="enable-background:new 0 0 511.999 511.999;" xml:space="preserve">
<path style="fill:#00997C;" d="M470.954,500.532L372.59,332.53H139.416L41.068,500.532c-1.401,2.374-1.401,5.278,0,7.651
	c1.371,2.355,3.919,3.816,6.694,3.816h416.469c2.77,0,5.322-1.461,6.723-3.816C472.325,505.81,472.325,502.906,470.954,500.532z"/>
<g style="opacity:0.2;">
	<path style="fill:#414042;" d="M97.522,508.184c-1.401-2.373-1.401-5.278,0-7.651l98.347-168.002h-56.453L41.068,500.532
		c-1.401,2.374-1.401,5.278,0,7.651c1.371,2.355,3.919,3.816,6.694,3.816h56.454C101.44,512,98.892,510.539,97.522,508.184z"/>
</g>
<path style="fill:#00B494;" d="M403.179,342.598l-80.367-137.259H189.179l-80.366,137.259c-1.372,2.373-1.372,5.279,0,7.653
	c1.404,2.353,3.951,3.817,6.723,3.817h280.922c2.77,0,5.32-1.464,6.724-3.817C404.546,347.877,404.546,344.971,403.179,342.598z"/>
<g style="opacity:0.2;">
	<path style="fill:#414042;" d="M163.251,350.251c-1.372-2.374-1.372-5.28,0-7.653l80.366-137.259h-54.439l-80.366,137.259
		c-1.372,2.373-1.372,5.279,0,7.653c1.404,2.353,3.951,3.817,6.723,3.817h54.44C167.203,354.068,164.655,352.604,163.251,350.251z"
		/>
</g>
<path style="fill:#00997C;" d="M163.461,224.743c-2.807,0-5.354-1.465-6.724-3.818c-1.404-2.375-1.404-5.293,0-7.653L249.27,55.181
	c1.403-2.373,3.954-3.818,6.725-3.818c2.772,0,5.324,1.445,6.725,3.818l92.535,158.091c1.399,2.359,1.399,5.278,0,7.653
	c-1.372,2.353-3.953,3.818-6.725,3.818L163.461,224.743L163.461,224.743z"/>
<g style="opacity:0.2;">
	<path style="fill:#414042;" d="M201.95,220.925c-1.404-2.375-1.404-5.293,0-7.653L278.6,82.315l-15.881-27.134
		c-1.401-2.373-3.952-3.818-6.725-3.818c-2.77,0-5.322,1.445-6.725,3.818l-92.533,158.091c-1.404,2.359-1.404,5.278,0,7.653
		c1.37,2.353,3.917,3.818,6.724,3.818h45.213C205.867,224.743,203.32,223.278,201.95,220.925z"/>
</g>
<g>
	<path style="fill:#F0D355;" d="M282.857,101.558c-1.032,0-2.056-0.17-3.043-0.511l-24.067-8.299l-24.074,8.299
		c-0.999,0.341-2.025,0.511-3.053,0.511c-1.938,0-3.857-0.605-5.467-1.768c-2.462-1.782-3.892-4.649-3.832-7.676l0.489-25.34
		l-15.37-20.203c-1.837-2.417-2.373-5.571-1.43-8.45c0.949-2.885,3.237-5.121,6.144-6.008l24.381-7.354l14.573-20.791
		C249.853,1.484,252.694,0,255.748,0c3.03,0,5.888,1.484,7.619,3.967l14.583,20.791l24.373,7.354
		c2.914,0.887,5.208,3.123,6.144,6.008c0.94,2.879,0.405,6.033-1.431,8.45l-15.358,20.203l0.487,25.34
		c0.056,3.026-1.373,5.894-3.837,7.676C286.718,100.947,284.791,101.558,282.857,101.558z"/>
	<circle style="fill:#F0D355;" cx="226.356" cy="189.168" r="12.935"/>
</g>
<circle style="fill:#FFFFFF;" cx="285.643" cy="189.168" r="12.935"/>
<circle style="fill:#F0D355;" cx="165.459" cy="320.669" r="12.935"/>
<circle style="fill:#FFFFFF;" cx="225.823" cy="320.669" r="12.935"/>
<circle style="fill:#F0D355;" cx="286.176" cy="320.669" r="12.935"/>
<circle style="fill:#FFFFFF;" cx="346.54" cy="320.669" r="12.935"/>
<circle style="fill:#F0D355;" cx="105.095" cy="474.812" r="12.935"/>
<circle style="fill:#FFFFFF;" cx="165.459" cy="474.812" r="12.935"/>
<circle style="fill:#F0D355;" cx="225.823" cy="474.812" r="12.935"/>
<circle style="fill:#FFFFFF;" cx="286.176" cy="474.812" r="12.935"/>
<circle style="fill:#F0D355;" cx="346.54" cy="474.812" r="12.935"/>
<circle style="fill:#FFFFFF;" cx="406.904" cy="474.812" r="12.935"/>
<g style="opacity:0.1;">
	<path style="fill:#414042;" d="M241.502,61.925c-10.238-10.238-16.719-22.35-19.033-33.828l-13.316,4.017
		c-2.907,0.887-5.195,3.123-6.144,6.008c-0.942,2.879-0.406,6.033,1.43,8.45l15.369,20.203l-0.489,25.34
		c-0.061,3.026,1.37,5.894,3.832,7.676c1.611,1.163,3.53,1.768,5.467,1.768c1.028,0,2.054-0.17,3.053-0.511l24.074-8.299
		l24.067,8.299c0.986,0.341,2.01,0.511,3.043,0.511c1.934,0,3.861-0.611,5.469-1.768c2.464-1.782,3.893-4.649,3.837-7.676
		l-0.21-10.916C276.605,84.266,256.926,77.348,241.502,61.925z"/>
</g>
<g>
</g>
<g>
</g>
<g>
</g>
<g>
</g>
<g>
</g>
<g>
</g>
<g>
</g>
<g>
</g>
<g>
</g>
<g>
</g>
<g>
</g>
<g>
</g>
<g>
</g>
<g>
</g>
<g>
</g>
</svg>
