<?xml version="1.0" encoding="iso-8859-1"?>
<!-- Generator: Adobe Illustrator 19.0.0, SVG Export Plug-In . SVG Version: 6.00 Build 0)  -->
<svg version="1.1" id="Layer_1" xmlns="http://www.w3.org/2000/svg" xmlns:xlink="http://www.w3.org/1999/xlink" x="0px" y="0px"
	 viewBox="0 0 512 512" style="enable-background:new 0 0 512 512;" xml:space="preserve">
<path style="fill:#64C37D;" d="M250.435,150.261c-9.217,0-16.696-7.479-16.696-16.696C233.739,59.913,288.087,0,361.739,0
	c9.217,0,16.696,7.479,16.696,16.696s-7.479,16.696-16.696,16.696c-55.239,0-94.609,44.935-94.609,100.174
	C267.13,142.782,259.652,150.261,250.435,150.261z"/>
<path style="fill:#FF9811;" d="M311.652,111.304c-19.332,0-37.966,2.888-55.652,7.998c-17.687-5.11-36.32-7.998-55.652-7.998
	C89.699,111.304,0,201.002,0,311.652C0,422.301,89.699,512,200.348,512c19.332,0,37.965-2.888,55.652-7.998
	c17.686,5.11,36.32,7.998,55.652,7.998C422.301,512,512,422.301,512,311.652C512,201.002,422.301,111.304,311.652,111.304z"/>
<path style="fill:#EE8700;" d="M311.652,512C422.301,512,512,422.301,512,311.652c0-110.65-89.699-200.348-200.348-200.348
	c-19.332,0-37.966,2.888-55.652,7.998v384.7C273.686,509.112,292.32,512,311.652,512z"/>
<g>
	<path style="fill:#FFDA44;" d="M78.982,244.579c3.239-8.642,12.886-13.01,21.494-9.771l89.043,33.391
		c8.631,3.239,13.006,12.859,9.766,21.49c-2.511,6.706-8.875,10.837-15.63,10.837c-1.951,0-3.929-0.337-5.865-1.065l-89.043-33.391
		C80.118,262.83,75.743,253.21,78.982,244.579z"/>
	<path style="fill:#FFDA44;" d="M367.978,395.804l-33.391,33.391c-3.261,3.261-7.533,4.892-11.804,4.892s-8.544-1.631-11.804-4.892
		l-21.587-21.586l-21.587,21.587c-6.521,6.521-17.087,6.521-23.609,0l-21.586-21.587l-21.587,21.587
		c-6.521,6.521-17.087,6.521-23.609,0l-33.391-33.391c-6.521-6.521-6.521-17.087,0-23.609s17.087-6.521,23.609,0l21.587,21.586
		l21.586-21.587c6.521-6.521,17.087-6.521,23.609,0L256,393.783l21.586-21.587c6.521-6.521,17.087-6.521,23.609,0l21.587,21.587
		l21.587-21.587c6.521-6.521,17.087-6.521,23.609,0C374.5,378.717,374.5,389.283,367.978,395.804z"/>
	<path style="fill:#FFDA44;" d="M400.998,266.069l-89.043,33.391c-1.934,0.728-3.913,1.065-5.864,1.065
		c-6.755,0-13.119-4.13-15.63-10.837c-3.239-8.631,1.135-18.249,9.766-21.49l89.043-33.391c8.608-3.239,18.255,1.131,21.494,9.771
		C414.003,253.21,409.629,262.83,400.998,266.069z"/>
</g>
<g>
</g>
<g>
</g>
<g>
</g>
<g>
</g>
<g>
</g>
<g>
</g>
<g>
</g>
<g>
</g>
<g>
</g>
<g>
</g>
<g>
</g>
<g>
</g>
<g>
</g>
<g>
</g>
<g>
</g>
</svg>
