<?xml version="1.0" encoding="iso-8859-1"?>
<!-- Generator: Adobe Illustrator 19.0.0, SVG Export Plug-In . SVG Version: 6.00 Build 0)  -->
<svg version="1.1" id="Layer_1" xmlns="http://www.w3.org/2000/svg" xmlns:xlink="http://www.w3.org/1999/xlink" x="0px" y="0px"
	 viewBox="0 0 512 512" style="enable-background:new 0 0 512 512;" xml:space="preserve">
<path style="fill:#FF5023;" d="M497.503,213.882l-25.239-9.566c-2.902-1.25-47.361-21.538-47.361-88.714l-0.012-34.895
	l-27.958,20.896c-10.267,7.673-38.883,26.071-61.815,30.511L255.852,0l-79.269,132.114c-22.932-4.438-51.546-22.836-61.802-30.502
	L86.8,80.626v34.976c0,67.171-44.454,87.462-47.361,88.714l-24.942,9.449l88.376,88.377l-64.682,64.682l24.624,9.85
	c50.925,20.37,72.291,61.198,72.464,61.536l10.851,21.702L255.85,350.193l109.719,109.719l10.851-21.702
	c0.204-0.407,20.94-40.926,72.465-61.536l24.624-9.85l-64.683-64.682l69.245-69.246L497.503,213.882z"/>
<path style="fill:#BF3C1A;" d="M497.503,213.882l-25.239-9.566c-2.902-1.25-47.361-21.538-47.361-88.714l-0.012-34.895
	l-27.958,20.896c-10.267,7.673-38.883,26.071-61.815,30.511L255.852,0v350.192l109.719,109.719l10.851-21.702
	c0.204-0.407,20.94-40.926,72.465-61.536l24.624-9.85l-64.683-64.682l69.245-69.246L497.503,213.882z"/>
<polygon style="fill:#401409;" points="338.17,267.873 313.439,243.141 273.34,283.24 273.34,208.872 238.364,208.872 
	238.364,283.24 198.265,243.141 173.534,267.873 238.364,332.704 238.364,512 273.34,512 273.34,332.704 "/>
<g>
</g>
<g>
</g>
<g>
</g>
<g>
</g>
<g>
</g>
<g>
</g>
<g>
</g>
<g>
</g>
<g>
</g>
<g>
</g>
<g>
</g>
<g>
</g>
<g>
</g>
<g>
</g>
<g>
</g>
</svg>
